<svg width="36" height="35" viewBox="0 0 36 35" fill="none" xmlns="http://www.w3.org/2000/svg">
<path d="M17.8426 16.0417C18.9963 16.0417 20.1241 15.6995 21.0834 15.0586C22.0427 14.4176 22.7904 13.5066 23.2319 12.4407C23.6734 11.3748 23.7889 10.2019 23.5639 9.07031C23.3388 7.93875 22.7832 6.89935 21.9674 6.08355C21.1516 5.26774 20.1122 4.71217 18.9806 4.48709C17.8491 4.26201 16.6762 4.37753 15.6103 4.81904C14.5444 5.26055 13.6333 6.00822 12.9924 6.96751C12.3514 7.9268 12.0093 9.05461 12.0093 10.2083C12.0093 11.7554 12.6239 13.2392 13.7178 14.3331C14.8118 15.4271 16.2955 16.0417 17.8426 16.0417ZM17.8426 7.29167C18.4195 7.29167 18.9834 7.46273 19.463 7.78322C19.9427 8.1037 20.3165 8.55922 20.5373 9.09218C20.758 9.62513 20.8158 10.2116 20.7032 10.7773C20.5907 11.3431 20.3129 11.8628 19.905 12.2707C19.4971 12.6786 18.9774 12.9564 18.4116 13.069C17.8458 13.1815 17.2594 13.1237 16.7265 12.903C16.1935 12.6822 15.738 12.3084 15.4175 11.8287C15.097 11.3491 14.9259 10.7852 14.9259 10.2083C14.9259 9.43479 15.2332 8.69292 15.7802 8.14594C16.3272 7.59896 17.0691 7.29167 17.8426 7.29167Z" fill="black" fill-opacity="0.49"/>
<path d="M17.8421 18.9585C15.1347 18.9585 12.5382 20.034 10.6237 21.9484C8.70931 23.8629 7.63379 26.4594 7.63379 29.1668C7.63379 29.5536 7.78743 29.9245 8.06093 30.198C8.33442 30.4715 8.70535 30.6252 9.09212 30.6252C9.4789 30.6252 9.84983 30.4715 10.1233 30.198C10.3968 29.9245 10.5505 29.5536 10.5505 29.1668C10.5505 27.233 11.3187 25.3783 12.6861 24.0108C14.0536 22.6434 15.9083 21.8752 17.8421 21.8752C19.776 21.8752 21.6307 22.6434 22.9981 24.0108C24.3656 25.3783 25.1338 27.233 25.1338 29.1668C25.1338 29.5536 25.2874 29.9245 25.5609 30.198C25.8344 30.4715 26.2053 30.6252 26.5921 30.6252C26.9789 30.6252 27.3498 30.4715 27.6233 30.198C27.8968 29.9245 28.0505 29.5536 28.0505 29.1668C28.0505 26.4594 26.9749 23.8629 25.0605 21.9484C23.1461 20.034 20.5495 18.9585 17.8421 18.9585Z" fill="black" fill-opacity="0.49"/>
</svg>
