<svg width="75" height="75" viewBox="0 0 75 75" fill="none" xmlns="http://www.w3.org/2000/svg">
<path d="M0 65C0 70.5228 4.47715 75 10 75H65C70.5228 75 75 70.5228 75 65V10C75 4.47715 70.5228 0 65 0H10C4.47715 0 0 4.47715 0 10V65Z" fill="#0089F3" fill-opacity="0.46"/>
<path d="M21.0127 18.1571H54.134V57.584H21.0127V18.1571Z" fill="white" fill-opacity="0.01"/>
<path d="M25.6191 29.6566C28.0054 24.7463 32.4653 21.4426 37.5734 21.4426M25.6191 29.6566H30.6731M25.6191 29.6566V23.6404" stroke="black" stroke-opacity="0.49" stroke-width="4" stroke-linecap="round" stroke-linejoin="round"/>
<path d="M30.6732 52.1007C26.5482 49.2602 23.7729 43.9512 23.7729 37.8705M30.6732 52.1007V46.0845M30.6732 52.1007H25.6192" stroke="black" stroke-opacity="0.49" stroke-width="4" stroke-linecap="round" stroke-linejoin="round"/>
<path d="M49.528 46.0846C47.1419 50.9949 42.6819 54.2985 37.5737 54.2985M49.528 46.0846H44.474M49.528 46.0846V52.1008" stroke="black" stroke-opacity="0.49" stroke-width="4" stroke-linecap="round" stroke-linejoin="round"/>
<path d="M44.4736 23.6406C48.5986 26.4811 51.3739 31.7901 51.3739 37.8707M44.4736 23.6406V29.6568M44.4736 23.6406H49.5277" stroke="black" stroke-opacity="0.49" stroke-width="4" stroke-linecap="round" stroke-linejoin="round"/>
<path d="M33.4331 37.8705H41.7134" stroke="black" stroke-opacity="0.49" stroke-width="4" stroke-linecap="round" stroke-linejoin="round"/>
<path d="M37.5737 42.7989V32.9422" stroke="black" stroke-opacity="0.49" stroke-width="4" stroke-linecap="round" stroke-linejoin="round"/>
</svg>
