<svg width="21" height="20" viewBox="0 0 21 20" fill="none" xmlns="http://www.w3.org/2000/svg">
<path d="M16.7333 4.10837C15.366 2.73212 13.5613 1.87605 11.6305 1.68774C9.69966 1.49943 7.76361 1.99069 6.15614 3.07682C4.54867 4.16294 3.37051 5.77588 2.82479 7.63755C2.27906 9.49922 2.39996 11.493 3.16665 13.275C3.24656 13.4407 3.27278 13.6271 3.24165 13.8084L2.50832 17.3334C2.48006 17.4685 2.48583 17.6086 2.52511 17.7409C2.56438 17.8733 2.63593 17.9938 2.73332 18.0917C2.81315 18.171 2.90821 18.2332 3.01276 18.2748C3.11731 18.3163 3.22919 18.3362 3.34165 18.3334H3.50832L7.07498 17.6167C7.25626 17.5949 7.44008 17.6208 7.60832 17.6917C9.3904 18.4584 11.3841 18.5793 13.2458 18.0336C15.1075 17.4878 16.7204 16.3097 17.8065 14.7022C18.8927 13.0947 19.3839 11.1587 19.1956 9.22786C19.0073 7.29701 18.1512 5.49236 16.775 4.12504L16.7333 4.10837ZM7.50832 10.8334C7.3435 10.8334 7.18238 10.7845 7.04534 10.6929C6.9083 10.6014 6.80149 10.4712 6.73842 10.3189C6.67535 10.1667 6.65884 9.99912 6.691 9.83746C6.72315 9.67581 6.80252 9.52733 6.91906 9.41078C7.03561 9.29424 7.18409 9.21487 7.34574 9.18272C7.50739 9.15056 7.67495 9.16707 7.82722 9.23014C7.97949 9.29321 8.10964 9.40002 8.20121 9.53706C8.29278 9.67411 8.34165 9.83522 8.34165 10C8.34165 10.2211 8.25385 10.433 8.09757 10.5893C7.94129 10.7456 7.72933 10.8334 7.50832 10.8334ZM10.8417 10.8334C10.6768 10.8334 10.5157 10.7845 10.3787 10.6929C10.2416 10.6014 10.1348 10.4712 10.0718 10.3189C10.0087 10.1667 9.99218 9.99912 10.0243 9.83746C10.0565 9.67581 10.1359 9.52733 10.2524 9.41078C10.3689 9.29424 10.5174 9.21487 10.6791 9.18272C10.8407 9.15056 11.0083 9.16707 11.1606 9.23014C11.3128 9.29321 11.443 9.40002 11.5345 9.53706C11.6261 9.67411 11.675 9.83522 11.675 10C11.675 10.2211 11.5872 10.433 11.4309 10.5893C11.2746 10.7456 11.0627 10.8334 10.8417 10.8334ZM14.175 10.8334C14.0102 10.8334 13.849 10.7845 13.712 10.6929C13.575 10.6014 13.4682 10.4712 13.4051 10.3189C13.342 10.1667 13.3255 9.99912 13.3577 9.83746C13.3898 9.67581 13.4692 9.52733 13.5857 9.41078C13.7023 9.29424 13.8508 9.21487 14.0124 9.18272C14.1741 9.15056 14.3416 9.16707 14.4939 9.23014C14.6462 9.29321 14.7763 9.40002 14.8679 9.53706C14.9594 9.67411 15.0083 9.83522 15.0083 10C15.0083 10.2211 14.9205 10.433 14.7642 10.5893C14.608 10.7456 14.396 10.8334 14.175 10.8334Z" fill="#E523E9"/>
</svg>
