<svg width="36" height="35" viewBox="0 0 36 35" fill="none" xmlns="http://www.w3.org/2000/svg">
<path d="M30.1221 14.8459L18.8784 3.35422C18.7428 3.21754 18.5815 3.10905 18.4038 3.03501C18.2261 2.96097 18.0355 2.92285 17.8429 2.92285C17.6504 2.92285 17.4598 2.96097 17.2821 3.03501C17.1044 3.10905 16.9431 3.21754 16.8075 3.35422L5.56377 14.8605C5.2917 15.1347 5.07683 15.4603 4.93163 15.8183C4.78643 16.1763 4.71379 16.5596 4.71794 16.9459V29.1667C4.71681 29.9133 5.00199 30.6318 5.51474 31.1744C6.02749 31.717 6.72878 32.0423 7.47419 32.0834H28.2117C28.9571 32.0423 29.6584 31.717 30.1711 31.1744C30.6839 30.6318 30.9691 29.9133 30.9679 29.1667V16.9459C30.9691 16.1627 30.6658 15.4097 30.1221 14.8459ZM14.9263 29.1667V20.4167H20.7596V29.1667H14.9263ZM28.0513 29.1667H23.6763V18.9584C23.6763 18.5716 23.5226 18.2007 23.2491 17.9272C22.9756 17.6537 22.6047 17.5001 22.2179 17.5001H13.4679C13.0812 17.5001 12.7102 17.6537 12.4367 17.9272C12.1633 18.2007 12.0096 18.5716 12.0096 18.9584V29.1667H7.63461V16.8876L17.8429 6.46047L28.0513 16.9459V29.1667Z" fill="black" fill-opacity="0.49"/>
</svg>
