<svg width="75" height="75" viewBox="0 0 75 75" fill="none" xmlns="http://www.w3.org/2000/svg">
<path d="M0 65C0 70.5228 4.47715 75 10 75H65C70.5228 75 75 70.5228 75 65V10C75 4.47715 70.5228 0 65 0H10C4.47715 0 0 4.47715 0 10V65Z" fill="#24A548" fill-opacity="0.49"/>
<path d="M31.7432 34.5901C33.0699 34.5901 34.3667 34.1657 35.4698 33.3707C36.5728 32.5757 37.4326 31.4456 37.9402 30.1235C38.4479 28.8014 38.5808 27.3466 38.3219 25.9431C38.0631 24.5395 37.4243 23.2503 36.4862 22.2384C35.5481 21.2265 34.353 20.5374 33.0518 20.2582C31.7507 19.9791 30.402 20.1223 29.1764 20.67C27.9507 21.2176 26.9031 22.145 26.1661 23.3348C25.429 24.5247 25.0356 25.9236 25.0356 27.3546C25.0356 29.2736 25.7423 31.114 27.0003 32.4709C28.2582 33.8278 29.9643 34.5901 31.7432 34.5901Z" fill="black" fill-opacity="0.49"/>
<path d="M45.1586 38.2074C46.1536 38.2074 47.1262 37.8891 47.9535 37.2929C48.7808 36.6966 49.4256 35.8491 49.8064 34.8575C50.1871 33.8659 50.2868 32.7748 50.0927 31.7222C49.8985 30.6695 49.4194 29.7026 48.7159 28.9437C48.0123 28.1847 47.1159 27.6679 46.1401 27.4585C45.1642 27.2491 44.1527 27.3566 43.2335 27.7673C42.3142 28.178 41.5285 28.8736 40.9758 29.766C40.423 30.6584 40.1279 31.7076 40.1279 32.7808C40.1279 34.22 40.6579 35.6003 41.6014 36.618C42.5448 37.6357 43.8244 38.2074 45.1586 38.2074Z" fill="black" fill-opacity="0.49"/>
<path d="M51.8664 50.8699C52.3112 50.8699 52.7377 50.6793 53.0522 50.3401C53.3667 50.0008 53.5433 49.5408 53.5433 49.061C53.542 47.3704 53.1014 45.7141 52.2716 44.28C51.4418 42.8458 50.2559 41.6913 48.8486 40.9473C47.4413 40.2033 45.8688 39.8998 44.3096 40.071C42.7505 40.2422 41.267 40.8814 40.0275 41.916C38.385 40.1512 36.2948 38.9506 34.0206 38.4655C31.7463 37.9804 29.3898 38.2326 27.2483 39.1903C25.1067 40.148 23.276 41.7683 21.987 43.8469C20.698 45.9254 20.0085 48.3691 20.0054 50.8699C20.0054 51.3496 20.182 51.8097 20.4965 52.1489C20.811 52.4882 21.2375 52.6787 21.6823 52.6787H41.805C42.2498 52.6787 42.6763 52.4882 42.9908 52.1489C43.3053 51.8097 43.4819 51.3496 43.4819 50.8699" fill="black" fill-opacity="0.49"/>
</svg>
