<svg width="75" height="76" viewBox="0 0 75 76" fill="none" xmlns="http://www.w3.org/2000/svg">
<path d="M12.1968 5.00562H61.855V61.2844H12.1968V5.00562Z" fill="white" fill-opacity="0.01"/>
<path d="M0 55.5806C0 66.6263 8.95431 75.5806 20 75.5806H55C66.0457 75.5806 75 66.6263 75 55.5806V20.5806C75 9.53487 66.0457 0.580566 55 0.580566H20C8.9543 0.580566 0 9.53487 0 20.5806V55.5806Z" fill="#F52121" fill-opacity="0.42"/>
<path d="M37.0259 13.6956L42.4607 18.1885L49.1877 18.174L51.2543 25.4293L56.7041 29.8988L54.6132 37.145L56.7041 44.3913L51.2543 48.8608L49.1877 56.116L42.4607 56.1016L37.0259 60.5945L31.5911 56.1016L24.8641 56.116L22.7975 48.8608L17.3477 44.3913L19.4386 37.145L17.3477 29.8988L22.7975 25.4293L24.8641 18.174L31.5911 18.1885L37.0259 13.6956Z" fill="black" fill-opacity="0.42"/>
<path d="M29.7839 37.1453L34.9567 43.0077L45.3021 31.283" stroke="black" stroke-width="4" stroke-linecap="round" stroke-linejoin="round"/>
</svg>
