<svg width="75" height="75" viewBox="0 0 75 75" fill="none" xmlns="http://www.w3.org/2000/svg">
<path d="M16.875 17.625H58.173V57.69H16.875V17.625Z" fill="white" fill-opacity="0.01"/>
<path d="M0 55C0 66.0457 8.95431 75 20 75H55C66.0457 75 75 66.0457 75 55V20C75 8.9543 66.0457 0 55 0H20C8.9543 0 0 8.95431 0 20V55Z" fill="#F28928" fill-opacity="0.49"/>
<path d="M34.9428 49.3433C43.0207 49.3433 49.5691 42.9903 49.5691 35.1536C49.5691 27.3168 43.0207 20.9639 34.9428 20.9639C26.8649 20.9639 20.3164 27.3168 20.3164 35.1536C20.3164 42.9903 26.8649 49.3433 34.9428 49.3433Z" fill="black" fill-opacity="0.49" stroke="black" stroke-opacity="0.49" stroke-width="4" stroke-linejoin="round"/>
<path d="M39.8099 29.5969C38.5644 28.3885 36.8436 27.6411 34.943 27.6411C33.0423 27.6411 31.3216 28.3885 30.0759 29.5969" stroke="white" stroke-width="4" stroke-linecap="round" stroke-linejoin="round"/>
<path d="M45.4583 45.3547L52.7588 52.4373" stroke="black" stroke-opacity="0.49" stroke-width="4" stroke-linecap="round" stroke-linejoin="round"/>
</svg>
