<svg width="20" height="20" viewBox="0 0 20 20" fill="none" xmlns="http://www.w3.org/2000/svg">
<path d="M9.99997 17.5001C9.8903 17.5007 9.78158 17.4797 9.68005 17.4382C9.57852 17.3967 9.48617 17.3356 9.40831 17.2584L2.93331 10.7751C2.12111 9.95439 1.66553 8.84638 1.66553 7.69174C1.66553 6.5371 2.12111 5.42909 2.93331 4.60841C3.75186 3.79217 4.86067 3.3338 6.01664 3.3338C7.17261 3.3338 8.28142 3.79217 9.09997 4.60841L9.99997 5.50841L10.9 4.60841C11.7185 3.79217 12.8273 3.3338 13.9833 3.3338C15.1393 3.3338 16.2481 3.79217 17.0666 4.60841C17.8788 5.42909 18.3344 6.5371 18.3344 7.69174C18.3344 8.84638 17.8788 9.95439 17.0666 10.7751L10.5916 17.2584C10.5138 17.3356 10.4214 17.3967 10.3199 17.4382C10.2184 17.4797 10.1096 17.5007 9.99997 17.5001Z" fill="#E523E9"/>
</svg>
