<svg width="75" height="75" viewBox="0 0 75 75" fill="none" xmlns="http://www.w3.org/2000/svg">
<path d="M21.4492 18.5146H55.4422V54.8288H21.4492V18.5146Z" fill="white" fill-opacity="0.01"/>
<path d="M0 65C0 70.5228 4.47715 75 10 75H65C70.5228 75 75 70.5228 75 65V10C75 4.47715 70.5228 0 65 0H10C4.47715 0 0 4.47715 0 10V65Z" fill="#F52121" fill-opacity="0.42"/>
<path d="M51.193 32.1325V48.0199C51.193 49.2734 50.2418 50.2896 49.0684 50.2896H27.8228C26.6494 50.2896 25.6982 49.2734 25.6982 48.0199V25.3235C25.6982 24.07 26.6494 23.0539 27.8228 23.0539H44.1111" stroke="black" stroke-opacity="0.49" stroke-width="6" stroke-linecap="round" stroke-linejoin="round"/>
<path d="M31.3638 33.6455L38.4456 39.6979L51.193 23.0539" stroke="black" stroke-opacity="0.49" stroke-width="6" stroke-linecap="round" stroke-linejoin="round"/>
</svg>
