<svg width="47" height="48" viewBox="0 0 47 48" fill="none" xmlns="http://www.w3.org/2000/svg">
<ellipse cx="23.5" cy="24" rx="23.5" ry="24" fill="black" fill-opacity="0.49"/>
<path d="M23.3713 20.6627C24.6424 20.6627 25.885 20.3254 26.9419 19.6932C27.9988 19.0611 28.8225 18.1627 29.309 17.1115C29.7954 16.0603 29.9227 14.9036 29.6747 13.7877C29.4267 12.6718 28.8146 11.6467 27.9158 10.8422C27.017 10.0376 25.8718 9.48974 24.6251 9.26777C23.3784 9.0458 22.0862 9.15972 20.9118 9.59513C19.7374 10.0305 18.7337 10.7679 18.0275 11.7139C17.3213 12.66 16.9443 13.7722 16.9443 14.91C16.9443 16.4357 17.6215 17.8989 18.8267 18.9778C20.032 20.0567 21.6667 20.6627 23.3713 20.6627Z" fill="white"/>
<path d="M33.0115 35.0446C33.4377 35.0446 33.8463 34.8931 34.1477 34.6233C34.449 34.3536 34.6183 33.9878 34.6183 33.6064C34.6183 30.9364 33.4333 28.3757 31.3241 26.4877C29.2148 24.5997 26.3541 23.5391 23.3711 23.5391C20.3882 23.5391 17.5275 24.5997 15.4182 26.4877C13.309 28.3757 12.124 30.9364 12.124 33.6064C12.124 33.9878 12.2933 34.3536 12.5946 34.6233C12.8959 34.8931 13.3046 35.0446 13.7308 35.0446H33.0115Z" fill="white"/>
</svg>
