<svg width="36" height="35" viewBox="0 0 36 35" fill="none" xmlns="http://www.w3.org/2000/svg">
<path d="M8.86934 30.625C8.61881 30.6242 8.37271 30.5589 8.15475 30.4354C7.92949 30.3088 7.74192 30.1246 7.61123 29.9017C7.48055 29.6787 7.41145 29.4251 7.411 29.1667V7.77292C7.39129 6.89838 7.717 6.0513 8.31755 5.41526C8.9181 4.77923 9.74511 4.40547 10.6193 4.375H24.6193C25.4936 4.40547 26.3206 4.77923 26.9211 5.41526C27.5217 6.0513 27.8474 6.89838 27.8277 7.77292V29.1667C27.8261 29.4212 27.758 29.6708 27.6301 29.8908C27.5022 30.1109 27.3189 30.2936 27.0985 30.4208C26.8768 30.5488 26.6253 30.6162 26.3693 30.6162C26.1133 30.6162 25.8619 30.5488 25.6402 30.4208L17.3714 25.7396L9.5985 30.4062C9.3791 30.5424 9.12747 30.6179 8.86934 30.625Z" fill="black" fill-opacity="0.49"/>
</svg>
