<svg width="75" height="75" viewBox="0 0 75 75" fill="none" xmlns="http://www.w3.org/2000/svg">
<path d="M0 65C0 70.5228 4.47715 75 10 75H65C70.5228 75 75 70.5228 75 65V10C75 4.47715 70.5228 0 65 0H10C4.47715 0 0 4.47715 0 10V65Z" fill="#F28928" fill-opacity="0.49"/>
<path d="M17.3101 12.7087H60.0191V59.5759H17.3101V12.7087Z" fill="white" fill-opacity="0.01"/>
<path d="M27.7005 32.5013C23.7829 33.5237 20.8691 37.3888 20.8691 42.0007C20.8691 47.3932 24.8528 51.7648 29.7669 51.7648C30.6098 51.7648 31.4254 51.6362 32.1982 51.3958" stroke="black" stroke-opacity="0.49" stroke-width="5" stroke-linecap="round" stroke-linejoin="round"/>
<path d="M49.3904 32.5013C53.3081 33.5237 56.2219 37.3888 56.2219 42.0007C56.2219 47.3932 52.2382 51.7647 47.3241 51.7647C46.4812 51.7647 45.6656 51.6361 44.8928 51.3957" stroke="black" stroke-opacity="0.49" stroke-width="5" stroke-linecap="round" stroke-linejoin="round"/>
<path d="M49.3418 32.2367C49.3418 25.7657 44.5615 20.5199 38.6646 20.5199C32.7677 20.5199 27.9873 25.7657 27.9873 32.2367" stroke="black" stroke-opacity="0.49" stroke-width="5" stroke-linecap="round" stroke-linejoin="round"/>
<path d="M32.4944 39.9318L38.6645 33.1385L45.0103 40.048" stroke="black" stroke-opacity="0.49" stroke-width="5" stroke-linecap="round" stroke-linejoin="round"/>
<path d="M38.6646 49.8119V36.5932" stroke="black" stroke-opacity="0.49" stroke-width="5" stroke-linecap="round" stroke-linejoin="round"/>
</svg>
